{"title":"Equilibrium.2002.DVDRip.SweSub.Xvid","uid":8385317,"size":732926415,"categoryP":"video","categoryS":"movies","magnet":"?xt=urn:btih:5df3aa1cbc69d3c20e74dd6bec1d525964c90776&amp;dn=Equilibrium.2002.DVDRip.SweSub.Xvid&amp;tr=udp%3A%2F%2Ftracker.openbittorrent.com%3A80&amp;tr=udp%3A%2F%2Fopen.demonii.com%3A1337&amp;tr=udp%3A%2F%2Ftracker.coppersurfer.tk%3A6969&amp;tr=udp%3A%2F%2Fexodus.desync.com%3A6969","seeders":1,"leechers":0,"uploader":"nordjok","files":2,"time":1366276227,"description":"\n\n                          Swedish Hardsub\n\n &lt;a href=&quot;\nhttp://www.imdb.com/title/tt0238380/&quot; rel=&quot;nofollow&quot; target=&quot;_NEW&quot;&gt;\nhttp://www.imdb.com/title/tt0238380/&lt;/a&gt;\n\n\nGeneral\nComplete name                       : Equilibrium.2002.DVDRip.SweSub.Xvid.avi\nFormat                              : AVI\nFormat/Info                         : Audio Video Interleave\nFile size                           : 699 MiB\nDuration                            : 1h 42mn\n\n\nVideo\nID                                  : 0\nFormat                              : MPEG-4 Visual\nFormat profile                      : Advanced Simple@L5\nFormat settings, BVOP               : 2\nFormat settings, QPel               : No\nFormat settings, GMC                : No warppoints\nFormat settings, Matrix             : Default (H.263)\nCodec ID                            : XVID\nCodec ID/Hint                       : XviD\nDuration                            : 1h 42mn\nBit rate                            : 813 Kbps\nWidth                               : 720 pixels\nHeight                              : 304 pixels\nDisplay aspect ratio                : 2.35:1\nFrame rate                          : 25.000 fps\nColor space                         : YUV\nChroma subsampling                  : 4:2:0\nBit depth                           : 8 bits\nScan type                           : Progressive\nCompression mode                    : Lossy\nBits/(Pixel*Frame)                  : 0.149\nStream size                         : 597 MiB (85%)\nWriting library                     : XviD 73\n\nAudio\nID                                  : 1\nFormat                              : MPEG Audio\nFormat version                      : Version 1\nFormat profile                      : Layer 3\nMode                                : Joint stereo\nMode extension                      : MS Stereo\nCodec ID                            : 55\nCodec ID/Hint                       : MP3\nDuration                            : 1h 42mn\nBit rate mode                       : Variable\nBit rate                            : 128 Kbps\nChannel(s)                          : 2 channels\nSampling rate                       : 48.0 KHz\nCompression mode                    : Lossy\nStream size                         : 92.7 MiB (13%)\nAlignment                           : Aligned on interleaves\nInterleave, duration                : 24 ms (0.60 video frame)\nInterleave, preload duration        : 145 ms\nWriting library                     : LAME3.90.\nEncoding settings                   : -m j -V 4 -q 2 -lowpass 17.6 --abr 128\n\n","torrent":{"xt":"urn:btih:5df3aa1cbc69d3c20e74dd6bec1d525964c90776","amp;dn":"Equilibrium.2002.DVDRip.SweSub.Xvid","amp;tr":["udp%3A%2F%2Ftracker.openbittorrent.com%3A80","udp%3A%2F%2Fopen.demonii.com%3A1337","udp%3A%2F%2Ftracker.coppersurfer.tk%3A6969","udp%3A%2F%2Fexodus.desync.com%3A6969"],"infoHash":"5df3aa1cbc69d3c20e74dd6bec1d525964c90776","infoHashBuffer":{"type":"Buffer","data":[93,243,170,28,188,105,211,194,14,116,221,107,236,29,82,89,100,201,7,118]},"announce":[],"urlList":[]}}